<?xml version="1.0" encoding="UTF-8" standalone="no"?>
<!-- Created with Inkscape (http://www.inkscape.org/) -->

<svg
   version="1.1"
   id="svg1"
   width="96"
   height="96"
   viewBox="0 0 96 96"
   sodipodi:docname="ic_action_map.svg"
   inkscape:version="1.4.3 (0d15f75, 2025-12-25)"
   xmlns:inkscape="http://www.inkscape.org/namespaces/inkscape"
   xmlns:sodipodi="http://sodipodi.sourceforge.net/DTD/sodipodi-0.dtd"
   xmlns="http://www.w3.org/2000/svg"
   xmlns:svg="http://www.w3.org/2000/svg">
  <defs
     id="defs1">
    <inkscape:path-effect
       effect="fill_between_many"
       method="originald"
       linkedpaths="#path1,0,1|"
       id="path-effect22" />
  </defs>
  <sodipodi:namedview
     id="namedview1"
     pagecolor="#ffffff"
     bordercolor="#666666"
     borderopacity="1.0"
     inkscape:showpageshadow="2"
     inkscape:pageopacity="0.0"
     inkscape:pagecheckerboard="0"
     inkscape:deskcolor="#d1d1d1"
     inkscape:zoom="4.4802923"
     inkscape:cx="60.152325"
     inkscape:cy="43.635546"
     inkscape:window-width="1920"
     inkscape:window-height="1017"
     inkscape:window-x="1272"
     inkscape:window-y="-8"
     inkscape:window-maximized="1"
     inkscape:current-layer="g1" />
  <g
     inkscape:groupmode="layer"
     inkscape:label="Image"
     id="g1">
    <path
       id="rect50"
       style="fill:#000000;fill-opacity:0.85;stroke-width:5.70359;stroke-linecap:round;stroke-linejoin:bevel;stroke-opacity:0;paint-order:stroke fill markers"
       d="M 5.3339844,10.666016 V 48 85.333984 H 48 90.666016 V 48 10.666016 H 48 Z m 5.2031246,6.230468 H 47.869141 85.203125 V 49.5625 80.228516 H 47.869141 10.537109 V 49.5625 Z m 45.035157,6.117188 -1.578371,0.842676 -2.75952,0.565529 -1.863281,1.525391 0.365234,1.40039 0.9375,0.773438 -0.455078,1.332031 -1.605469,0.5625 -1.017578,0.738281 -0.777344,-0.185547 -0.285156,-0.83789 0.0039,-0.876953 -0.11914,-1.082032 -0.175781,-0.875 H 45.28125 44.027344 l -0.742188,1.390625 -0.310547,0.69336 -0.43164,0.699219 0.667969,1.117187 1.328124,0.623047 0.613282,0.798828 0.376953,1.34375 h -2.162109 l -1.515626,0.175781 -0.353515,1.253907 0.294922,1.195312 1.998047,0.01172 0.978515,-0.371094 0.558594,-0.591797 1.875,-0.55664 1.710937,-1.365235 2.779297,0.328125 1.123047,1.089844 1.716797,0.183594 1.226563,-0.07031 1.08789,-0.136719 0.529297,-1.048828 2.695313,-0.335937 1.091796,0.435547 0.341797,0.609375 0.0625,1.564453 -1.271484,0.96289 -2.136719,0.816407 -2.044922,-0.002 -2.949218,-0.597657 -3.457032,0.333985 -1.539062,-1.140625 -1.847656,0.05859 -1.384766,0.908204 -1.400391,0.447265 -0.857421,1.128906 -1.271485,0.988282 -0.644531,1.294921 -0.833984,0.998047 -0.06055,3.019532 0.353515,1.958984 1.306641,0.90625 2.058594,0.332031 3.601562,-0.11914 2.050781,1.078125 0.988282,2.255859 0.861328,3.253906 0.65039,2.47461 0.445313,3.074218 0.806641,1.509766 0.416015,1.353516 1.044922,1.039062 1.257813,1.294922 1.314453,-0.117188 0.730468,-1.34375 0.94336,-1.107421 1.439453,-1.15625 0.625,-1.337891 0.265625,-3.486328 0.757812,-2.425781 0.957032,-1.691407 0.425781,-1.101562 1.023437,-0.767578 0.726563,-0.546875 0.707031,-1.410157 0.939453,-1.003906 -0.220703,-0.300781 -0.980469,-0.570313 -0.771484,-0.43164 -0.671875,-0.05664 -0.404297,-0.853515 0.652344,-0.578125 1.089844,0.02539 1.234375,-0.392578 0.746093,-0.605469 1.996094,-0.691406 L 68.886719,42.908203 68.001953,42.625 67.347656,41.677734 66.537109,41.029297 V 40.03125 39.035156 l 2.173829,-0.03125 1.535156,1.169922 2.220703,0.251953 0.900391,0.771485 1.308593,0.46875 0.150391,2.380859 0.851562,0.589844 0.220704,0.980469 0.15039,1.279296 h 1.863281 l 2.09961,-0.589843 1.144531,-1.990235 1.380859,-2.578125 -0.589843,-2.835937 -0.326172,-2.853516 0.0918,-3.392578 0.04492,-3.767578 -0.164062,-3.19336 -9.394531,-0.02148 -1.230469,-1.55664 -5.794922,0.07031 -1.673828,1.267578 -2.734375,0.560547 0.964844,-1.560547 -0.214844,-1.029297 -0.923828,-0.294922 h -2.695313 z m -0.328125,1.595962 0.914062,0.72435 -0.824219,1.332032 L 54.509766,28 h -0.587891 -0.587891 l -0.412109,-1.039062 0.412109,-1.626954 1,-0.353515 z m -38.591797,0.915757 -1.105469,1.066406 -0.84375,1.251953 -0.318359,1.378906 -0.828125,0.496094 -0.529297,1.958984 0.402344,1.455078 -0.08789,1.414063 0.214844,1.328125 1.941406,0.589844 1.056641,-0.824219 1.423828,-0.775391 1.574218,-0.984375 1.81836,-0.640625 -0.126953,-1.43164 0.308593,-0.97461 1.47461,0.363282 1.191406,0.78125 1.845703,0.505859 0.472656,-0.714844 -0.46289,-0.697265 -0.498047,-0.335938 -0.511719,-0.800781 -1.458984,-0.400391 -0.710938,-0.878906 -1.205078,-0.429688 -0.712891,-0.9375 -1.71875,-0.654296 -1.361328,-0.814454 z m 43.214844,12.460937 1.144531,0.783203 0.513672,0.861328 1.082031,0.546875 0.574219,1.097657 -0.511719,0.804687 -0.980469,0.6875 -0.851562,-1.800781 -0.783203,-1.703125 z m -44.830079,3.3125 -0.65625,0.226563 -0.04883,0.595703 0.361328,0.77539 h 0.587891 0.587891 v -0.58789 -0.587891 z m 6.15625,5.419922 -3.662109,0.421875 -2.115234,0.646484 -0.898438,0.894532 -0.214844,2.880859 0.433594,4 1.572266,1.125 1.398437,1.544922 0.761719,1.464844 -0.923828,2.285156 -0.570313,2.121094 -0.07813,2.441406 -0.779296,1.384766 -0.439454,1.875 0.851563,2.21289 1.207031,1.740234 0.765625,-0.128906 0.587891,-0.68164 -0.419922,-0.939454 0.04297,-1.09375 0.68164,-1.169921 0.697266,-1.082032 1.048828,-0.707031 0.521484,-0.785156 1.390625,-0.955078 1.384766,-1.623047 1.896484,-0.986328 1.199219,-1.628907 1.306641,-1.054687 0.808594,-1.080078 0.810546,-0.470703 0.341797,-0.726563 0.04492,-1.154297 0.964844,-0.412109 0.236328,-1.53125 0.03125,-1.396484 -0.5625,-1.076172 -1.904297,-0.873047 -0.896484,-1.134766 -1.359375,-0.277344 -0.824219,-1.1875 -1.052734,-0.224609 -0.570313,-0.941406 -1.998047,-0.714844 z m 44.771485,9.609375 -0.644532,0.527344 -0.294921,1.216797 -0.525391,0.90039 -0.255859,1.472656 0.09766,1.058594 0.978515,0.234375 0.980469,-0.705078 0.15625,-2.175781 z m 14.982422,11.634766 -1.353516,0.583984 -1.9375,1.226563 -3.492188,2.222656 -3.626953,1.830078 v 1.867187 1.869141 h 6 l 5.056641,-0.470703 0.236328,-4.621094 -0.06836,-2.746094 -0.04883,-1.636718 z"
       sodipodi:nodetypes="ccccccccccccccccccccccccccccccccccccccccccccccccccccccccccccccccccccccccccccccccccccccccccccccccccccccccccccccccccccccccccccccccccccccccccccccccccccccccccccccccccccccccccccccccccccccccccccccccccccccccccccccccccccccccccccccccccccccccccccccccccccccccccccccccccccccccccccccc" />
  </g>
</svg>
